<svg xmlns="http://www.w3.org/2000/svg"  viewBox="0 0 64 64" width="128px" height="128px" baseProfile="basic"><linearGradient id="aE2tGyU1Lps3tQRNjL6Rla" x1="31.995" x2="31.995" y1="-5.766" y2="64.302" gradientUnits="userSpaceOnUse"><stop offset="0" stop-color="#6dc7ff"/><stop offset=".699" stop-color="#e6abff"/></linearGradient><polygon fill="url(#aE2tGyU1Lps3tQRNjL6Rla)" points="59.99,31 32,59 4,31 22,13 40.5,31.5 32,40 27,35 30.5,31.5 22.5,23.5 14.5,31.5 32.5,49.5 50,32 26.5,8.5 32,3.01"/><linearGradient id="aE2tGyU1Lps3tQRNjL6Rlb" x1="31.995" x2="31.995" y1="-7.723" y2="57.131" gradientUnits="userSpaceOnUse"><stop offset="0" stop-color="#1a6dff"/><stop offset="1" stop-color="#c822ff"/></linearGradient><path fill="url(#aE2tGyU1Lps3tQRNjL6Rlb)" d="M32,60c-0.266,0-0.52-0.105-0.707-0.293 l-28-28c-0.391-0.391-0.391-1.023,0-1.414l18-18c0.391-0.391,1.023-0.391,1.414,0l18.5,18.5c0.391,0.391,0.391,1.023,0,1.414 l-8.5,8.5c-0.391,0.391-1.023,0.391-1.414,0l-5-5c-0.391-0.391-0.391-1.023,0-1.414l2.793-2.793L22.5,24.914L15.914,31.5 L32.5,48.086L48.586,32L25.793,9.207C25.605,9.02,25.5,8.765,25.5,8.5c0-0.266,0.105-0.521,0.294-0.708l5.5-5.49 c0.389-0.389,1.022-0.39,1.413,0.001l27.99,27.99c0.391,0.391,0.391,1.023,0,1.414l-27.99,28C32.52,59.895,32.266,60,32,60z M5.414,31L32,57.586L58.576,31L31.999,4.424l-4.084,4.077l22.792,22.792c0.391,0.391,0.391,1.023,0,1.414l-17.5,17.5 c-0.391,0.391-1.023,0.391-1.414,0l-18-18c-0.391-0.391-0.391-1.023,0-1.414l8-8c0.391-0.391,1.023-0.391,1.414,0l8,8 c0.391,0.391,0.391,1.023,0,1.414L28.414,35L32,38.586l7.086-7.086L22,14.414L5.414,31z"/></svg>